# xmcd
#
# Track frame offsets: 
#        150
#        37040
#        66743
#        107352
#        123313
#        172972
#        231860
#        278280
#
# Disc length: 4225 seconds
#
# Revision: 1
# Processed by: cddbd v1.5.2PL0 Copyright (c) Steve Scherf et al.
# Submitted via: ExactAudioCopy v0.95b4
#
DISCID=66107f08
DTITLE=Shantala - The Love Window
DYEAR=2003
DGENRE=New Age
TTITLE0=Ambra Parameshwari
TTITLE1=Hare Krishna
TTITLE2=Durge
TTITLE3=Shiva Invocation
TTITLE4=Jaya Shambho
TTITLE5=Nataraja
TTITLE6=Om Mata Kali
TTITLE7=Purnamadah
EXTD=
EXTT0=
EXTT1=
EXTT2=
EXTT3=
EXTT4=
EXTT5=
EXTT6=
EXTT7=
PLAYORDER=
